<svg xmlns="http://www.w3.org/2000/svg" viewBox="0 0 472.27 472.27"><defs><style>.cls-1{fill:#fff;}.cls-2{fill:#220027;}.cls-3{fill:#df8b08;}.cls-4{fill:#86d200;}</style></defs><title>Logo Svg</title><g id="Layer_4" data-name="Layer 4"><rect class="cls-1" x="0.86" y="2.3" width="469.97" height="469.97" rx="59.94" ry="59.94"/><rect class="cls-2" width="472.27" height="472.27" rx="59.94" ry="59.94"/></g><g id="Layer_2" data-name="Layer 2"><circle class="cls-3" cx="144.47" cy="83.26" r="42.38"/><circle class="cls-3" cx="253.23" cy="72.01" r="36.99"/><path class="cls-3" d="M86.07,21.33s12.28,12.12,2.72,20.31c0,0,2.58,8-25.28,23,0,0-6,3.89,1.44,14.68S61.23,123,61.23,123l-13.16,6.63S7.15,147-3.27,176.76c0,0-4.24,8.12,7.39,1.15,0,0,139.58-4.76,226.73,109.33,0,0,3.51,10,18.24,2.5l28.36-8.57s23.55-17.77,31.33-33.26-16.17-58.64-16.17-58.64l-.61-5.06s-5.64-14.68-5.67-29.51c0,0,0-12.21-8.77-16.59l-14.26-16.83,12.43-50.07-9.08-14.75-5.09-12.19s-4.79-5.08-15.41-3.18c0,0-22.61,9.47-44.17-34.47s-18.51-9.47-18.51-9.47l-20-1s-26.34-12-44.87,11.7L109.37-2Z" transform="translate(64.36 104.97)"/></g><g id="Layer_3" data-name="Layer 3"><circle class="cls-1" cx="150.6" cy="219.46" r="44.33"/><circle class="cls-1" cx="316.59" cy="204.95" r="38.45"/><path class="cls-4" d="M289.62,187.38l57,17.51.08,110.72-15.82,30s-3.19,12.32-2.53-1.14,5.61-57-35.4-102.23Z" transform="translate(64.36 104.97)"/></g></svg>